<?xml version="1.0" encoding="UTF-8"?>
<svg id="Layer_2" data-name="Layer 2" xmlns="http://www.w3.org/2000/svg" viewBox="0 0 195.97 177.44">
  <defs>
    <style>
      .cls-1 {
        fill: none;
        stroke: #fff;
        stroke-miterlimit: 10;
        stroke-width: 6px;
      }

      .cls-2 {
        fill: #231e5a;
      }

      .cls-3 {
        fill: #fff;
      }
    </style>
  </defs>
  <g id="Layer_1-2" data-name="Layer 1">
    <path class="cls-2" d="M195.97,6.69c-.31-4.06-3.54-6.36-7.38-6.69L6.45.1C2.57.79.33,3.49,0,7.38v162.68c.26,3.91,2.65,7.02,6.69,7.38h182.93c3.23-.19,6.15-3.12,6.35-6.35V6.69Z"/>
    <g>
      <path class="cls-3" d="M42.27,84.02v-29.77h5.32v29.77h-5.32ZM44.93,84.02v-4.13h8.6c1.95,0,3.44-.39,4.47-1.18s1.54-1.93,1.54-3.43v-.04c0-1-.24-1.85-.71-2.53s-1.18-1.19-2.11-1.53-2.1-.51-3.49-.51h-8.29v-3.86h7.45c1.93,0,3.39-.38,4.39-1.13s1.51-1.84,1.51-3.26v-.04c0-1.28-.44-2.27-1.31-2.97s-2.1-1.05-3.68-1.05h-8.36v-4.13h9.7c1.82,0,3.39.31,4.71.92s2.36,1.48,3.1,2.59,1.1,2.43,1.1,3.94v.04c0,1.07-.24,2.07-.73,3s-1.16,1.71-2.01,2.33-1.81,1.01-2.87,1.17v.1c1.39.12,2.61.51,3.67,1.16,1.06.65,1.88,1.49,2.48,2.53s.89,2.22.89,3.54v.04c0,1.73-.41,3.23-1.24,4.49s-2,2.23-3.52,2.91-3.34,1.02-5.46,1.02h-9.82Z"/>
      <path class="cls-3" d="M79.24,84.46c-2.15,0-4.01-.46-5.59-1.37-1.58-.91-2.81-2.22-3.68-3.92s-1.31-3.72-1.31-6.08v-.04c0-2.34.44-4.36,1.32-6.06.88-1.7,2.11-3.01,3.69-3.92,1.58-.91,3.43-1.37,5.55-1.37s3.99.46,5.58,1.37c1.59.91,2.82,2.22,3.7,3.91s1.32,3.71,1.32,6.07v.04c0,2.37-.44,4.4-1.31,6.1s-2.1,3-3.68,3.91c-1.58.91-3.45,1.36-5.59,1.36ZM79.26,80.31c1.09,0,2.03-.28,2.83-.85s1.41-1.39,1.85-2.47.65-2.38.65-3.91v-.04c0-1.51-.22-2.81-.66-3.88s-1.06-1.89-1.87-2.46-1.75-.85-2.84-.85-1.99.28-2.8.85-1.43,1.38-1.88,2.46-.67,2.37-.67,3.88v.04c0,1.53.22,2.83.67,3.91s1.07,1.9,1.88,2.47,1.75.85,2.84.85Z"/>
      <path class="cls-3" d="M100.87,84.39c-1.44,0-2.72-.28-3.83-.84s-1.97-1.33-2.58-2.33-.92-2.14-.92-3.44v-.04c0-1.31.33-2.42.98-3.35s1.6-1.66,2.84-2.21,2.74-.87,4.5-.98l8.36-.52v3.4l-7.63.47c-1.27.08-2.24.39-2.91.91s-1.01,1.22-1.01,2.08v.02c0,.89.34,1.6,1.02,2.11s1.59.77,2.71.77c.99,0,1.87-.2,2.65-.6s1.39-.94,1.85-1.63.68-1.46.68-2.33v-6.56c0-1.1-.35-1.97-1.04-2.61s-1.7-.96-3-.96c-1.21,0-2.18.26-2.91.77s-1.18,1.18-1.36,1.99l-.04.19h-4.75l.02-.25c.11-1.29.54-2.45,1.3-3.48s1.81-1.83,3.15-2.42c1.34-.59,2.93-.89,4.78-.89s3.41.3,4.76.91,2.38,1.45,3.12,2.54,1.1,2.37,1.1,3.84v15.04h-5.12v-3.36h-.12c-.41.76-.95,1.42-1.61,1.98s-1.41,1-2.26,1.3-1.75.45-2.71.45Z"/>
      <path class="cls-3" d="M118.15,84.02v-21.87h5.12v3.78h.12c.33-1.32.93-2.36,1.81-3.11s1.94-1.12,3.21-1.12c.32,0,.62.02.91.06s.53.09.72.14v4.64c-.21-.08-.5-.15-.88-.21s-.79-.08-1.23-.08c-.96,0-1.8.2-2.5.59s-1.24.97-1.61,1.72-.56,1.68-.56,2.76v12.69h-5.12Z"/>
      <path class="cls-3" d="M141.25,84.46c-1.84,0-3.44-.46-4.8-1.37-1.35-.91-2.4-2.22-3.14-3.93s-1.1-3.73-1.1-6.07v-.02c0-2.35.37-4.38,1.11-6.08s1.79-3.01,3.14-3.92c1.35-.91,2.94-1.37,4.77-1.37,1.05,0,2,.17,2.88.51s1.65.82,2.32,1.44,1.22,1.38,1.63,2.26h.12v-11.66h5.12v29.77h-5.12v-3.71h-.12c-.4.87-.93,1.61-1.6,2.22s-1.44,1.09-2.31,1.42-1.84.51-2.9.51ZM142.8,80.14c1.06,0,1.99-.29,2.81-.87s1.44-1.4,1.9-2.46.68-2.3.68-3.73v-.02c0-1.43-.23-2.67-.69-3.72s-1.09-1.87-1.9-2.45c-.8-.58-1.74-.87-2.8-.87s-2.05.29-2.86.86-1.42,1.38-1.86,2.42-.65,2.3-.65,3.76v.02c0,1.44.22,2.7.65,3.76s1.05,1.87,1.86,2.45,1.76.86,2.86.86Z"/>
      <path class="cls-3" d="M42.27,122.76v-29.77h10.87c2.97,0,5.51.58,7.61,1.73,2.1,1.16,3.72,2.83,4.85,5.03s1.69,4.87,1.69,8.01v.04c0,3.14-.56,5.82-1.68,8.06-1.12,2.24-2.74,3.94-4.85,5.13s-4.65,1.77-7.62,1.77h-10.87ZM47.6,118.28h4.99c2.01,0,3.7-.4,5.08-1.21,1.38-.8,2.42-1.98,3.14-3.53s1.07-3.46,1.07-5.73v-.04c0-2.21-.36-4.09-1.08-5.63s-1.77-2.71-3.16-3.5-3.06-1.19-5.04-1.19h-4.99v20.82Z"/>
      <path class="cls-3" d="M80.25,123.19c-2.19,0-4.07-.46-5.64-1.38-1.58-.92-2.78-2.23-3.62-3.92-.84-1.69-1.26-3.69-1.26-6v-.02c0-2.3.42-4.3,1.27-6.01s2.04-3.04,3.57-3.99,3.35-1.42,5.44-1.42,3.88.46,5.4,1.37,2.69,2.2,3.51,3.85,1.23,3.58,1.23,5.78v1.65h-17.87v-3.43h15.41l-2.48,3.2v-1.98c0-1.43-.22-2.62-.66-3.57s-1.05-1.66-1.82-2.14-1.66-.71-2.66-.71-1.92.24-2.71.73-1.41,1.21-1.86,2.18-.67,2.13-.67,3.51v1.98c0,1.33.22,2.47.67,3.41s1.08,1.66,1.91,2.17,1.81.75,2.95.75c.85,0,1.6-.13,2.25-.4s1.18-.62,1.6-1.04.71-.89.88-1.38l.04-.14h4.79l-.04.23c-.18.84-.51,1.66-.99,2.47s-1.13,1.53-1.94,2.18-1.77,1.16-2.89,1.54-2.38.57-3.8.57Z"/>
      <path class="cls-3" d="M102.69,123.19c-2.16,0-4.03-.46-5.61-1.38-1.58-.92-2.8-2.24-3.66-3.94-.86-1.71-1.29-3.73-1.29-6.07v-.02c0-2.32.43-4.34,1.3-6.04.87-1.7,2.09-3.01,3.66-3.93s3.42-1.38,5.54-1.38c1.93,0,3.59.37,4.99,1.1s2.5,1.71,3.3,2.92,1.25,2.54,1.36,4v.14h-4.83l-.04-.17c-.21-1.06-.7-1.96-1.5-2.71s-1.87-1.12-3.23-1.12c-1.07,0-2.01.29-2.82.88s-1.43,1.41-1.87,2.49-.66,2.36-.66,3.86v.02c0,1.51.22,2.81.67,3.88s1.07,1.89,1.88,2.47,1.74.86,2.82.86c1.31,0,2.36-.35,3.17-1.06s1.32-1.63,1.56-2.78l.04-.19h4.85l-.02.14c-.14,1.51-.62,2.87-1.44,4.09s-1.93,2.17-3.32,2.88-3.01,1.06-4.85,1.06Z"/>
      <path class="cls-3" d="M115.23,122.76v-29.77h5.12v29.77h-5.12ZM119.6,115.95v-5.98h.87l8.17-9.08h5.92l-10.19,11.08h-.95l-3.82,3.98ZM129.01,122.76l-7.32-9.95,3.28-3.8,9.97,13.74h-5.92Z"/>
      <path class="cls-3" d="M144.52,123.19c-1.91,0-3.55-.28-4.9-.85s-2.41-1.36-3.18-2.38-1.23-2.21-1.39-3.56l-.02-.19h5.06l.04.19c.19.95.65,1.69,1.37,2.21.72.52,1.74.78,3.04.78.84,0,1.55-.1,2.15-.31s1.05-.51,1.37-.91.48-.87.48-1.4v-.02c0-.65-.22-1.17-.66-1.58s-1.23-.74-2.37-1l-3.63-.8c-1.39-.32-2.55-.75-3.49-1.3s-1.64-1.23-2.1-2.05-.7-1.77-.7-2.86v-.02c0-1.33.36-2.5,1.09-3.51s1.75-1.79,3.07-2.35c1.32-.56,2.85-.85,4.6-.85s3.37.3,4.66.91,2.29,1.42,3,2.43,1.09,2.16,1.15,3.43l.02.23h-4.79l-.02-.17c-.11-.88-.51-1.61-1.2-2.18s-1.63-.86-2.83-.86c-.76,0-1.41.11-1.97.33s-.98.53-1.28.93-.44.87-.44,1.4v.02c0,.41.1.78.31,1.11s.54.62.99.86,1.06.45,1.82.63l3.63.8c2.27.51,3.89,1.23,4.85,2.18s1.44,2.2,1.44,3.79v.02c0,1.38-.39,2.58-1.18,3.62s-1.87,1.84-3.25,2.41c-1.38.57-2.97.86-4.76.86Z"/>
    </g>
    <polygon class="cls-1" points="20.77 20.77 20.77 156.67 174.85 156.67 175.2 21.12 20.77 20.77"/>
  </g>
</svg>