<?xml version="1.0" encoding="UTF-8"?>
<svg id="Layer_1" data-name="Layer 1" xmlns="http://www.w3.org/2000/svg" viewBox="0 0 67.07 47.81">
  <defs>
    <style>
      .cls-1 {
        fill: #644ea0;
      }

      .cls-2 {
        fill: #fff;
        stroke: #644ea0;
        stroke-miterlimit: 10;
        stroke-width: 2px;
      }
    </style>
  </defs>
  <rect class="cls-2" x="1" y="1" width="65.07" height="45.81" rx="2" ry="2"/>
  <g>
    <path class="cls-1" d="M10.12,21.93v-12.51h2.24v12.51h-2.24ZM11.24,21.93v-1.73h3.62c.82,0,1.45-.16,1.88-.49s.65-.81.65-1.44v-.02c0-.42-.1-.78-.3-1.06s-.5-.5-.89-.64-.88-.21-1.47-.21h-3.49v-1.62h3.13c.81,0,1.43-.16,1.85-.48s.63-.77.63-1.37v-.02c0-.54-.18-.95-.55-1.25s-.88-.44-1.55-.44h-3.51v-1.73h4.08c.76,0,1.42.13,1.98.39s.99.62,1.3,1.09.46,1.02.46,1.66v.02c0,.45-.1.87-.31,1.26s-.49.72-.85.98-.76.43-1.21.49v.04c.58.05,1.1.21,1.54.49s.79.63,1.04,1.06.37.93.37,1.49v.02c0,.73-.17,1.36-.52,1.89s-.84.94-1.48,1.22-1.4.43-2.29.43h-4.13Z"/>
    <path class="cls-1" d="M25.65,22.11c-.9,0-1.69-.19-2.35-.58s-1.18-.93-1.55-1.65-.55-1.57-.55-2.55v-.02c0-.98.19-1.83.56-2.55s.89-1.26,1.55-1.65,1.44-.58,2.33-.58,1.68.19,2.35.58,1.19.93,1.56,1.64.56,1.56.56,2.55v.02c0,.99-.18,1.85-.55,2.56s-.88,1.26-1.55,1.64-1.45.57-2.35.57ZM25.66,20.37c.46,0,.85-.12,1.19-.36s.59-.58.78-1.04.27-1,.27-1.64v-.02c0-.64-.09-1.18-.28-1.63s-.45-.79-.78-1.03-.74-.36-1.19-.36-.84.12-1.18.36-.6.58-.79,1.03-.28.99-.28,1.63v.02c0,.64.09,1.19.28,1.64s.45.8.79,1.04.74.36,1.19.36Z"/>
    <path class="cls-1" d="M34.75,22.09c-.61,0-1.14-.12-1.61-.35s-.83-.56-1.08-.98-.39-.9-.39-1.44v-.02c0-.55.14-1.02.41-1.41s.67-.7,1.19-.93,1.15-.37,1.89-.41l3.51-.22v1.43l-3.21.2c-.53.03-.94.16-1.22.38s-.42.51-.42.88h0c0,.38.14.68.43.9s.67.33,1.14.33c.42,0,.79-.08,1.11-.25s.59-.4.78-.69.29-.62.29-.98v-2.76c0-.46-.15-.83-.44-1.1s-.71-.4-1.26-.4c-.51,0-.92.11-1.22.33s-.5.5-.57.84l-.02.08h-1.99v-.1c.05-.54.24-1.03.56-1.46s.76-.77,1.32-1.02,1.23-.37,2.01-.37,1.44.13,2,.38,1,.61,1.31,1.07.46.99.46,1.61v6.32h-2.15v-1.41h-.05c-.17.32-.4.6-.68.83s-.59.42-.95.55-.74.19-1.14.19Z"/>
    <path class="cls-1" d="M42.01,21.93v-9.19h2.15v1.59h.05c.14-.56.39-.99.76-1.31s.82-.47,1.35-.47c.13,0,.26,0,.38.03s.22.04.3.06v1.95c-.09-.03-.21-.06-.37-.09s-.33-.03-.52-.03c-.4,0-.75.08-1.05.25s-.52.41-.68.72-.23.71-.23,1.16v5.33h-2.15Z"/>
    <path class="cls-1" d="M51.72,22.11c-.77,0-1.45-.19-2.02-.58s-1.01-.94-1.32-1.65-.46-1.57-.46-2.55h0c0-1,.16-1.85.47-2.56s.75-1.26,1.32-1.65,1.23-.58,2-.58c.44,0,.84.07,1.21.21s.69.34.98.61.51.58.69.95h.05v-4.9h2.15v12.51h-2.15v-1.56h-.05c-.17.36-.39.68-.67.93s-.6.46-.97.6-.77.21-1.22.21ZM52.37,20.3c.45,0,.84-.12,1.18-.36s.61-.59.8-1.03.29-.97.29-1.57h0c0-.61-.1-1.13-.29-1.57s-.46-.78-.8-1.03-.73-.36-1.18-.36-.86.12-1.2.36-.6.58-.78,1.02-.27.97-.27,1.58h0c0,.62.09,1.14.27,1.59s.44.79.78,1.03.74.36,1.2.36Z"/>
    <path class="cls-1" d="M10.12,38.21v-12.51h4.57c1.25,0,2.32.24,3.2.73s1.56,1.19,2.04,2.12.71,2.05.71,3.36v.02c0,1.32-.24,2.45-.71,3.39s-1.15,1.66-2.04,2.16-1.96.75-3.2.75h-4.57ZM12.35,36.33h2.1c.84,0,1.56-.17,2.13-.51s1.02-.83,1.32-1.48.45-1.45.45-2.41v-.02c0-.93-.15-1.72-.46-2.37s-.75-1.14-1.33-1.47-1.29-.5-2.12-.5h-2.1v8.75Z"/>
    <path class="cls-1" d="M26.08,38.39c-.92,0-1.71-.19-2.37-.58s-1.17-.94-1.52-1.65-.53-1.55-.53-2.52h0c0-.97.18-1.82.53-2.54s.86-1.28,1.5-1.68,1.41-.6,2.29-.6,1.63.19,2.27.58,1.13.92,1.47,1.62.52,1.5.52,2.43v.69h-7.51v-1.44h6.48l-1.04,1.34v-.83c0-.6-.09-1.1-.28-1.5s-.44-.7-.76-.9-.7-.3-1.12-.3-.81.1-1.14.31-.59.51-.78.91-.28.9-.28,1.47v.83c0,.56.09,1.04.28,1.44s.46.7.8.91.76.32,1.24.32c.36,0,.67-.06.95-.17s.5-.26.67-.44.3-.37.37-.58l.02-.06h2.01l-.02.1c-.08.35-.21.7-.42,1.04s-.47.64-.82.91-.75.49-1.21.65-1,.24-1.6.24Z"/>
    <path class="cls-1" d="M35.51,38.39c-.91,0-1.69-.19-2.36-.58s-1.18-.94-1.54-1.66-.54-1.57-.54-2.55h0c0-.99.18-1.83.55-2.55s.88-1.26,1.54-1.65,1.44-.58,2.33-.58c.81,0,1.51.15,2.1.46s1.05.72,1.39,1.23.53,1.07.57,1.68v.06h-2.03l-.02-.07c-.09-.45-.3-.83-.63-1.14s-.78-.47-1.36-.47c-.45,0-.85.12-1.18.37s-.6.59-.78,1.05-.28.99-.28,1.62h0c0,.64.09,1.19.28,1.64s.45.8.79,1.04.73.36,1.18.36c.55,0,.99-.15,1.33-.45s.56-.69.65-1.17l.02-.08h2.04v.06c-.07.64-.27,1.21-.62,1.72s-.81.91-1.4,1.21-1.26.45-2.04.45Z"/>
    <path class="cls-1" d="M40.78,38.21v-12.51h2.15v12.51h-2.15ZM42.62,35.35v-2.51h.36l3.43-3.82h2.49l-4.28,4.66h-.4l-1.6,1.67ZM46.57,38.21l-3.08-4.18,1.38-1.6,4.19,5.78h-2.49Z"/>
    <path class="cls-1" d="M53.09,38.39c-.8,0-1.49-.12-2.06-.36s-1.01-.57-1.34-1-.52-.93-.59-1.5v-.08s2.12,0,2.12,0l.02.08c.08.4.27.71.58.93s.73.33,1.28.33c.35,0,.65-.04.9-.13s.44-.21.58-.38.2-.36.2-.59h0c0-.28-.09-.5-.28-.67s-.52-.31-1-.42l-1.53-.34c-.58-.13-1.07-.32-1.47-.55s-.69-.52-.88-.86-.29-.74-.29-1.2h0c0-.57.15-1.06.46-1.48s.74-.75,1.29-.99,1.2-.36,1.93-.36,1.42.13,1.96.38.96.6,1.26,1.02.46.91.48,1.44v.1s-2,0-2,0v-.07c-.05-.37-.22-.68-.51-.91s-.69-.36-1.19-.36c-.32,0-.59.05-.83.14s-.41.22-.54.39-.19.36-.19.59h0c0,.18.04.34.13.48s.23.26.42.36.45.19.76.26l1.53.34c.95.21,1.63.52,2.04.91s.61.93.61,1.59h0c0,.59-.16,1.09-.49,1.53s-.78.77-1.37,1.01-1.25.36-2,.36Z"/>
  </g>
</svg>