<svg width="48" height="48" viewBox="0 0 48 48" fill="none" xmlns="http://www.w3.org/2000/svg">
  <rect width="48" height="48" rx="8" fill="#6B46C1"/>
  <path d="M12 12H36V36H12V12Z" fill="white"/>
  <path d="M24 16C28.4183 16 32 19.5817 32 24C32 28.4183 28.4183 32 24 32C19.5817 32 16 28.4183 16 24C16 19.5817 19.5817 16 24 16Z" fill="#6B46C1"/>
  <path d="M20 20C20 18.8954 20.8954 18 22 18H26C27.1046 18 28 18.8954 28 20V28C28 29.1046 27.1046 30 26 30H22C20.8954 30 20 29.1046 20 28V20Z" fill="white"/>
</svg> 