<svg width="48" height="48" viewBox="0 0 48 48" fill="none" xmlns="http://www.w3.org/2000/svg">
  <rect width="48" height="48" rx="8" fill="#00A1E0"/>
  <path d="M12 20C12 15.5817 15.5817 12 20 12H28C32.4183 12 36 15.5817 36 20V28C36 32.4183 32.4183 36 28 36H20C15.5817 36 12 32.4183 12 28V20Z" fill="white"/>
  <path d="M18 24L22 20L26 24L22 28L18 24Z" fill="#00A1E0"/>
  <path d="M22 16L26 20L22 24L18 20L22 16Z" fill="#00A1E0"/>
  <path d="M22 28L26 32L22 36L18 32L22 28Z" fill="#00A1E0"/>
</svg> 